Run_20002
nRows=4
nColumns=161

# SIMM Motion File Header:
name Run_20002
datacolumns 161
datarows 4
otherdata 1
range 0.00833300 0.03333300
endheader
time	pelvis_tilt	pelvis_list	pelvis_rotation	pelvis_tx	pelvis_ty	pelvis_tz	hip_flexion_r	hip_adduction_r	hip_rotation_r	knee_angle_r	ankle_angle_r	hip_flexion_l	hip_adduction_l	hip_rotation_l	knee_angle_l	ankle_angle_l	lumbar_extension	lumbar_bending	lumbar_rotation	arm_flex_r	arm_add_r	arm_rot_r	elbow_flex_r	pro_sup_r	arm_flex_l	arm_add_l	arm_rot_l	elbow_flex_l	pro_sup_l	subtalar_angle_r	mtp_angle_r	subtalar_angle_l	mtp_angle_l	wrist_flex_r	wrist_dev_r	wrist_flex_l	wrist_dev_l	LASI_tx	LASI_ty	LASI_tz	RASI_tx	RASI_ty	RASI_tz	LPSI_tx	LPSI_ty	LPSI_tz	RPSI_tx	RPSI_ty	RPSI_tz	RTH1_tx	RTH1_ty	RTH1_tz	RTH3_tx	RTH3_ty	RTH3_tz	LTH1_tx	LTH1_ty	LTH1_tz	LTH2_tx	LTH2_ty	LTH2_tz	LTH3_tx	LTH3_ty	LTH3_tz	RTB1_tx	RTB1_ty	RTB1_tz	RTB2_tx	RTB2_ty	RTB2_tz	RTB3_tx	RTB3_ty	RTB3_tz	LTB1_tx	LTB1_ty	LTB1_tz	LTB2_tx	LTB2_ty	LTB2_tz	LTB3_tx	LTB3_ty	LTB3_tz	RCAL_tx	RCAL_ty	RCAL_tz	RTOE_tx	RTOE_ty	RTOE_tz	RMT5_tx	RMT5_ty	RMT5_tz	LCAL_tx	LCAL_ty	LCAL_tz	LTOE_tx	LTOE_ty	LTOE_tz	LMT5_tx	LMT5_ty	LMT5_tz	LACR_tx	LACR_ty	LACR_tz	RACR_tx	RACR_ty	RACR_tz	CLAV_tx	CLAV_ty	CLAV_tz	C7_tx	C7_ty	C7_tz	RUA1_tx	RUA1_ty	RUA1_tz	RUA2_tx	RUA2_ty	RUA2_tz	RUA3_tx	RUA3_ty	RUA3_tz	RLEL_tx	RLEL_ty	RLEL_tz	RMEL_tx	RMEL_ty	RMEL_tz	LUA1_tx	LUA1_ty	LUA1_tz	LUA2_tx	LUA2_ty	LUA2_tz	LUA3_tx	LUA3_ty	LUA3_tz	LLEL_tx	LLEL_ty	LLEL_tz	LMEL_tx	LMEL_ty	LMEL_tz	RFAsuperior_tx	RFAsuperior_ty	RFAsuperior_tz	RFAradius_tx	RFAradius_ty	RFAradius_tz	RFAulna_tx	RFAulna_ty	RFAulna_tz	LFAsuperior_tx	LFAsuperior_ty	LFAsuperior_tz	LFAradius_tx	LFAradius_ty	LFAradius_tz	LFAulna_tx	LFAulna_ty	LFAulna_tz
      0.00833300	     -1.65825321	      0.61073654	     -2.51467025	      0.88228066	      1.00047862	     -0.26356335	     19.04308615	      4.75601730	     10.60121442	    -16.17980638	      4.01413234	     -6.69406047	      5.14366682	      1.15019730	    -45.76091698	    -20.46072132	     -6.25042218	      0.73858397	    -11.95361807	    -42.33253312	    -22.04916403	     -0.90983195	     83.90798383	     94.43636909	    -22.62664541	    -19.90357222	      4.86351437	    116.82645334	    109.75933930	      0.00000000	      0.00000000	      0.00000000	      0.00000000	      0.00000000	      0.00000000	      0.00000000	      0.00000000	      0.89615335	      1.02666935	     -0.37935557	      0.88781435	      1.02528170	     -0.14989608	      0.73605692	      1.06334561	     -0.31828894	      0.72399306	      1.06040091	     -0.22047250	      0.85049964	      0.85778600	     -0.08864455	      0.91742696	      0.60874341	     -0.14714889	      0.82901391	      0.83206457	     -0.43499909	      0.85602710	      0.71712463	     -0.40700885	      0.76247694	      0.61829008	     -0.40076385	      0.99419780	      0.38802681	     -0.22083151	      0.96304335	      0.32785953	     -0.15383031	      0.98075562	      0.26727135	     -0.22429846	      0.67958831	      0.40954829	     -0.32697245	      0.58937247	      0.40383190	     -0.39662150	      0.53394843	      0.31884531	     -0.32997660	      0.88531973	      0.09742013	     -0.22422620	      1.08901235	      0.11160751	     -0.26373183	      1.07932890	      0.08550890	     -0.17194184	      0.38133361	      0.33232987	     -0.32827239	      0.43533526	      0.13645104	     -0.28835531	      0.40025170	      0.13123303	     -0.37222190	      0.88515842	      1.49085300	     -0.44126072	      0.80016579	      1.48581588	     -0.06556774	      0.90067411	      1.47775845	     -0.21903504	      0.78723730	      1.53460928	     -0.27553813	      0.70165663	      1.37985425	     -0.02638508	      0.64219993	      1.39484347	     -0.07008546	      0.63635178	      1.32029109	     -0.01202603	      0.58125001	      1.26855861	     -0.00549779	      0.56706897	      1.25647679	     -0.08711744	      0.84494942	      1.36238008	     -0.51288267	      0.77876820	      1.31883084	     -0.52684433	      0.84741805	      1.27550513	     -0.53640865	      0.80715305	      1.20000326	     -0.56188422	      0.74280880	      1.19815711	     -0.50056844	      0.65912069	      1.16726116	     -0.00418997	      0.73510203	      1.07985898	     -0.05070956	      0.68163999	      1.04192182	     -0.02545837	      0.90945622	      1.17166463	     -0.48678377	      0.96200811	      1.19601953	     -0.37365856	      0.98362578	      1.13793833	     -0.40607853
      0.01666700	     -1.31312376	      0.02947323	     -2.74032913	      0.88191045	      0.99398396	     -0.26267981	     18.99287254	      5.68619782	      9.95650101	    -18.31230853	      2.87008105	     -5.27695552	      4.08924732	     -0.15905455	    -50.01725781	    -18.26353167	     -6.88689854	      1.43588525	    -11.08790656	    -41.37785345	    -22.09800465	     -0.54285134	     83.81870198	     94.48230225	    -22.70815901	    -19.38733412	      4.85580782	    116.02195804	    109.79455329	      0.00000000	      0.00000000	      0.00000000	      0.00000000	      0.00000000	      0.00000000	      0.00000000	      0.00000000	      0.89589931	      1.01940561	     -0.37921073	      0.88722208	      1.01883860	     -0.14894968	      0.73564047	      1.05512535	     -0.31863606	      0.72302032	      1.05299460	     -0.22063675	      0.85030879	      0.85161324	     -0.08868503	      0.91721658	      0.60229140	     -0.14740666	      0.83240366	      0.82421343	     -0.43491280	      0.86174293	      0.70977901	     -0.40808513	      0.77048967	      0.60940386	     -0.40157845	      0.99185572	      0.38077101	     -0.22199831	      0.95749364	      0.32083109	     -0.15591905	      0.97476798	      0.26005695	     -0.22627480	      0.68847290	      0.40371916	     -0.32739774	      0.59646508	      0.40267035	     -0.39780424	      0.53862084	      0.31875296	     -0.33161685	      0.87341492	      0.09834369	     -0.22610111	      1.07807596	      0.09786399	     -0.26618643	      1.06647427	      0.07570066	     -0.17315344	      0.38453095	      0.33787888	     -0.32725983	      0.43721082	      0.14037142	     -0.29401710	      0.40094955	      0.13819079	     -0.37758503	      0.88442976	      1.48354014	     -0.44089898	      0.80299251	      1.47781744	     -0.06387766	      0.90177205	      1.47008222	     -0.21874189	      0.78797540	      1.52764785	     -0.27438621	      0.70575479	      1.37017388	     -0.02421377	      0.64532320	      1.38519937	     -0.06621619	      0.64120618	      1.30980503	     -0.00942534	      0.58652526	      1.25788625	     -0.00235138	      0.57112197	      1.24595553	     -0.08358319	      0.84258027	      1.35535010	     -0.51168826	      0.77576055	      1.31252084	     -0.52484271	      0.84375664	      1.26809242	     -0.53418979	      0.80232919	      1.19324775	     -0.55988371	      0.73893138	      1.19221801	     -0.49778714	      0.66540252	      1.15737553	     -0.00235846	      0.74154486	      1.07093166	     -0.05023270	      0.68886578	      1.03244179	     -0.02424215	      0.90542061	      1.16285783	     -0.48666839	      0.96027067	      1.18541264	     -0.37413442	      0.98019002	      1.12729775	     -0.40746198
      0.02500000	     -1.02953268	     -0.65932199	     -2.97711667	      0.88110401	      0.98717248	     -0.26171426	     19.27243434	      6.77590616	      9.34334211	    -21.00105653	      2.62854082	     -3.77773379	      2.86793842	     -1.30844227	    -54.21459606	    -16.21801774	     -7.51699529	      2.23495401	    -10.14773955	    -40.33259121	    -22.15155525	     -0.17129623	     83.70691937	     94.48727403	    -22.73623287	    -18.88003674	      4.81201087	    115.14848651	    109.95013934	      0.00000000	      0.00000000	      0.00000000	      0.00000000	      0.00000000	      0.00000000	      0.00000000	      0.00000000	      0.89551505	      1.01182553	     -0.37898331	      0.88621074	      1.01219333	     -0.14822370	      0.73487076	      1.04661313	     -0.31883598	      0.72165700	      1.04544127	     -0.22071533	      0.84998958	      0.84528396	     -0.08823815	      0.91740015	      0.59644137	     -0.14774390	      0.83561077	      0.81586047	     -0.43477190	      0.86729719	      0.70214786	     -0.40945260	      0.77845824	      0.60018048	     -0.40254988	      0.98992651	      0.37441445	     -0.22344556	      0.95315889	      0.31480349	     -0.15802553	      0.96874785	      0.25390916	     -0.22843140	      0.69777065	      0.39815441	     -0.32770438	      0.60423242	      0.40098626	     -0.39919265	      0.54393814	      0.31851676	     -0.33318287	      0.86087600	      0.09940005	     -0.22778804	      1.06608967	      0.08674412	     -0.26833487	      1.05308458	      0.06820660	     -0.17416856	      0.38872013	      0.34304304	     -0.32626434	      0.43982680	      0.14399303	     -0.29961667	      0.40261517	      0.14491199	     -0.38293352	      0.88356581	      1.47602420	     -0.44081195	      0.80588167	      1.46943254	     -0.06208832	      0.90298058	      1.46225006	     -0.21849054	      0.78865340	      1.52037285	     -0.27333639	      0.70997186	      1.36007892	     -0.02199945	      0.64854087	      1.37509896	     -0.06228347	      0.64623319	      1.29890945	     -0.00674311	      0.59200287	      1.24675196	      0.00090514	      0.57552232	      1.23486556	     -0.08001467	      0.84001053	      1.34784816	     -0.51059894	      0.77258782	      1.30583078	     -0.52283091	      0.83987902	      1.26021598	     -0.53188360	      0.79731088	      1.18622191	     -0.55794265	      0.73495240	      1.18594359	     -0.49501969	      0.67192768	      1.14708185	     -0.00050196	      0.74826004	      1.06171109	     -0.04975846	      0.69641896	      1.02257599	     -0.02305989	      0.90120117	      1.15367267	     -0.48673347	      0.95835521	      1.17427688	     -0.37483738	      0.97656040	      1.11623094	     -0.40930388
      0.03333300	     -0.80493385	     -1.48035230	     -3.23873902	      0.87963040	      0.98001533	     -0.26061008	     20.00165586	      8.07947996	      8.78724820	    -24.51954194	      3.68533703	     -2.11790522	      1.44353795	     -2.33318852	    -58.41751473	    -14.30071430	     -8.17374318	      3.15410523	     -9.09075383	    -39.12248953	    -22.19897755	      0.23304011	     83.53457616	     94.43346610	    -22.67238823	    -18.38538901	      4.73248675	    114.14058122	    110.17623366	      0.00000000	      0.00000000	      0.00000000	      0.00000000	      0.00000000	      0.00000000	      0.00000000	      0.00000000	      0.89488200	      1.00381495	     -0.37858756	      0.88456218	      1.00531782	     -0.14778438	      0.73350495	      1.03764122	     -0.31883293	      0.71973644	      1.03764722	     -0.22070741	      0.84941960	      0.83902032	     -0.08710881	      0.91833940	      0.59150295	     -0.14810521	      0.83856754	      0.80694821	     -0.43453891	      0.87259379	      0.69423913	     -0.41120039	      0.78636819	      0.59063716	     -0.40366525	      0.98836048	      0.36946911	     -0.22527271	      0.95043051	      0.31044399	     -0.16001994	      0.96255205	      0.24950102	     -0.23068525	      0.70772308	      0.39303020	     -0.32782298	      0.61305413	      0.39849569	     -0.40084579	      0.55031005	      0.31806653	     -0.33464926	      0.84737167	      0.10060778	     -0.22915113	      1.05254227	      0.07959320	     -0.26993723	      1.03887849	      0.06402701	     -0.17485990	      0.39450090	      0.34755838	     -0.32536149	      0.44364977	      0.14712971	     -0.30505356	      0.40593418	      0.15120032	     -0.38824073	      0.88246570	      1.46824714	     -0.44116230	      0.80885526	      1.46045594	     -0.06011814	      0.90436793	      1.45428927	     -0.21829563	      0.78931756	      1.51281888	     -0.27236288	      0.71437927	      1.34928884	     -0.01973446	      0.65188825	      1.36423380	     -0.05822956	      0.65150183	      1.28732335	     -0.00394507	      0.59780955	      1.23488527	      0.00435034	      0.58033708	      1.22298279	     -0.07629878	      0.83711255	      1.33964363	     -0.50969132	      0.76912861	      1.29850915	     -0.52084850	      0.83559620	      1.25158209	     -0.52939442	      0.79196604	      1.17879525	     -0.55608103	      0.73076880	      1.17919483	     -0.49226193	      0.67884090	      1.13613400	      0.00140161	      0.75541910	      1.05201190	     -0.04931969	      0.70450547	      1.01210269	     -0.02195191	      0.89665239	      1.14387376	     -0.48707438	      0.95613516	      1.16232933	     -0.37595385	      0.97257438	      1.10443951	     -0.41172442
